<svg xmlns="http://www.w3.org/2000/svg" width="14.998" height="13.107" viewBox="0 0 14.998 13.107">
  <path id="heart" d="M7,46.7a.41.41,0,0,1-.205-.055,24.49,24.49,0,0,1-3.366-2.422,13.885,13.885,0,0,1-2.335-2.5A5.277,5.277,0,0,1,0,38.72a4.334,4.334,0,0,1,1.106-2.9,3.624,3.624,0,0,1,2.7-1.223A3.744,3.744,0,0,1,7,36.49a3.744,3.744,0,0,1,3.2-1.9,3.644,3.644,0,0,1,2.593,1.1A4.272,4.272,0,0,1,14,38.725a5.38,5.38,0,0,1-1.114,3,14.065,14.065,0,0,1-2.332,2.5,24.574,24.574,0,0,1-3.348,2.422A.41.41,0,0,1,7,46.7Z" transform="translate(0.5 -34.094)" fill="none" stroke="#0f0f0f" stroke-width="1"/>
</svg>
