<svg xmlns="http://www.w3.org/2000/svg" width="22.599" height="19.68" viewBox="0 0 22.599 19.68">
  <path id="heart" d="M10.8,53.274a.632.632,0,0,1-.316-.085A37.786,37.786,0,0,1,5.29,49.452a21.424,21.424,0,0,1-3.6-3.86A8.142,8.142,0,0,1,0,40.959a6.687,6.687,0,0,1,1.706-4.478,5.591,5.591,0,0,1,4.162-1.887A5.776,5.776,0,0,1,10.8,37.519a5.776,5.776,0,0,1,4.931-2.925,5.623,5.623,0,0,1,4,1.7A6.592,6.592,0,0,1,21.6,40.967a8.3,8.3,0,0,1-1.718,4.625,21.7,21.7,0,0,1-3.6,3.859,37.917,37.917,0,0,1-5.165,3.737.633.633,0,0,1-.318.086Z" transform="translate(0.5 -34.094)" fill="none" stroke="#393838" stroke-width="1"/>
</svg>
