<svg xmlns="http://www.w3.org/2000/svg" width="24" height="20" viewBox="0 0 24 20">
  <g id="reply" transform="translate(0 -2)" fill="none">
    <path d="M10,7V2.75a.75.75,0,0,0-1.272-.538l-8.5,8.25a.749.749,0,0,0,0,1.076l8.5,8.25A.75.75,0,0,0,10,19.25V15h1.418a12.753,12.753,0,0,1,11.153,6.572l.021.038a.751.751,0,0,0,.658.39.74.74,0,0,0,.186-.023A.75.75,0,0,0,24,21.25,14.267,14.267,0,0,0,10,7Z" stroke="none"/>
    <path d="M 9 3.341573715209961 L 1.109498977661133 10.99999618530273 L 9 18.65843200683594 L 9 14 L 11.41800022125244 14 C 16.10336112976074 14 20.44612503051758 16.3859920501709 22.96540832519531 20.28535652160645 C 22.74002838134766 17.15341949462891 21.41976165771484 14.2277250289917 19.19081115722656 11.9623498916626 C 16.73723030090332 9.468679428100586 13.46706008911133 8.062150001525879 9.982700347900391 8.001850128173828 L 9 7.98483943939209 L 9 3.341573715209961 M 9.250027656555176 1.999753952026367 C 9.348719596862793 1.999753952026367 9.448084831237793 2.019187927246094 9.541999816894531 2.059000015258789 C 9.819000244140625 2.177000045776367 10 2.448999404907227 10 2.75 L 10 7.001998901367188 C 17.74300003051758 7.13599967956543 24 13.47599983215332 24 21.25 C 24 21.5930004119873 23.76799964904785 21.89200019836426 23.43600082397461 21.97699928283691 C 23.10400009155273 22.06267738342285 22.75677108764648 21.9100284576416 22.59199905395508 21.61000061035156 L 22.57099914550781 21.57200050354004 C 20.32799911499023 17.52000045776367 16.05400085449219 15 11.41800022125244 15 L 10 15 L 10 19.25 C 10 19.55099868774414 9.819000244140625 19.82299995422363 9.541999816894531 19.94099998474121 C 9.266999244689941 20.0570011138916 8.944998741149902 19.99799919128418 8.727999687194824 19.78800010681152 L 0.2280006408691406 11.53800010681152 C 0.082000732421875 11.39699935913086 0 11.20300006866455 0 11 C 0 10.79699993133545 0.082000732421875 10.60299968719482 0.2280006408691406 10.46199989318848 L 8.727999687194824 2.211999893188477 C 8.869841575622559 2.072797775268555 9.058680534362793 1.999750137329102 9.250027656555176 1.999753952026367 Z" stroke="none" fill="#393838"/>
  </g>
</svg>
